HIERARCHY
ROOT Hips
{
	OFFSET 15.585500 22.159004 44.358299
	CHANNELS 6 Xposition Yposition Zposition Zrotation Xrotation Yrotation
	JOINT Chest
	{
		OFFSET -0.128500 0.160400 6.566002
		CHANNELS 6 Xposition Yposition Zposition Zrotation Xrotation Yrotation
		JOINT Chest2
		{
			OFFSET 0.000000 0.000000 3.554802
			CHANNELS 6 Xposition Yposition Zposition Zrotation Xrotation Yrotation
			JOINT Neck
			{
				OFFSET 0.000000 0.000000 8.267998
				CHANNELS 6 Xposition Yposition Zposition Zrotation Xrotation Yrotation
				JOINT Head
				{
					OFFSET 0.000000 0.000002 2.173897
					CHANNELS 6 Xposition Yposition Zposition Zrotation Xrotation Yrotation
					End Site
					{
						OFFSET 0.000000 0.000000 7.718697
					}
				}
			}
			JOINT LeftCollar
			{
				OFFSET 2.057500 0.117599 5.946301
				CHANNELS 6 Xposition Yposition Zposition Zrotation Xrotation Yrotation
				JOINT LeftShoulder
				{
					OFFSET 4.957699 0.000000 0.000000
					CHANNELS 6 Xposition Yposition Zposition Zrotation Xrotation Yrotation
					JOINT LeftElbow
					{
						OFFSET 0.000000 0.000000 -8.465500
						CHANNELS 6 Xposition Yposition Zposition Zrotation Xrotation Yrotation
						JOINT LeftWrist
						{
							OFFSET 0.000000 -0.000002 -14.594898
							CHANNELS 6 Xposition Yposition Zposition Zrotation Xrotation Yrotation
							End Site
							{
								OFFSET 0.000000 0.000000 -2.173901
							}
						}
					}
				}
			}
			JOINT RightCollar
			{
				OFFSET -3.048500 -0.728800 6.604099
				CHANNELS 6 Xposition Yposition Zposition Zrotation Xrotation Yrotation
				JOINT RightShoulder
				{
					OFFSET -3.710299 0.000000 0.000000
					CHANNELS 6 Xposition Yposition Zposition Zrotation Xrotation Yrotation
					JOINT RightElbow
					{
						OFFSET 0.000000 0.000000 -10.450901
						CHANNELS 6 Xposition Yposition Zposition Zrotation Xrotation Yrotation
						JOINT RightWrist
						{
							OFFSET 0.000000 0.000000 -12.539200
							CHANNELS 6 Xposition Yposition Zposition Zrotation Xrotation Yrotation
							End Site
							{
								OFFSET 0.000000 -0.000002 -2.173901
							}
						}
					}
				}
			}
		}
	}
	JOINT LeftHip
	{
		OFFSET 2.442599 -0.601400 -2.767502
		CHANNELS 6 Xposition Yposition Zposition Zrotation Xrotation Yrotation
		JOINT LeftKnee
		{
			OFFSET 0.000000 -0.000002 -17.033703
			CHANNELS 6 Xposition Yposition Zposition Zrotation Xrotation Yrotation
			JOINT LeftAnkle
			{
				OFFSET 0.000000 -0.000002 -19.318800
				CHANNELS 6 Xposition Yposition Zposition Zrotation Xrotation Yrotation
				End Site
				{
					OFFSET 0.000000 -8.281900 0.000000
				}
			}
		}
	}
	JOINT RightHip
	{
		OFFSET -3.126200 -0.601400 -2.283501
		CHANNELS 6 Xposition Yposition Zposition Zrotation Xrotation Yrotation
		JOINT RightKnee
		{
			OFFSET 0.000000 -0.000002 -16.919401
			CHANNELS 6 Xposition Yposition Zposition Zrotation Xrotation Yrotation
			JOINT RightAnkle
			{
				OFFSET 0.000000 -0.000002 -18.035900
				CHANNELS 6 Xposition Yposition Zposition Zrotation Xrotation Yrotation
				End Site
				{
					OFFSET 0.000000 -9.230099 0.000000
				}
			}
		}
	}
}
MOTION
Frames: 6
Frame Time: 0.041667
23.274599 38.776203 8.553795 5.657742 1.145666 -4.367958 -0.128502 0.160395 6.565999 -5.786949 2.812016 3.784528 0.000001 0.000001 3.554808 -0.382993 -8.301334 -1.065707 0.000002 0.000003 8.267997 2.841796 2.893286 4.984327 0.000004 0.000006 2.173901 2.594012 -0.175603 1.786961 2.057506 0.117601 5.946304 -23.226786 4.161510 3.767484 4.957698 0.000005 0.000002 -11.486157 -7.952248 -81.663825 0.000002 0.000000 -8.465500 -70.418069 -126.023397 -75.932149 -0.000002 0.000006 -14.594893 -190.837166 -141.141761 -171.942841 -3.048500 -0.728794 6.604103 30.347743 4.130279 -4.597737 -3.710293 0.000003 -0.000000 39.931079 -4.087503 99.273337 0.000003 0.000009 -10.450901 -149.035889 -58.683947 -162.138487 0.000005 -0.000001 -12.539197 325.633886 -14.614395 45.099473 2.442591 -0.601398 -2.767505 134.608316 1.943292 91.844946 -0.000001 -0.000004 -17.033705 -179.307383 44.908979 170.757338 -0.000001 -0.000001 -19.318806 -148.257507 117.838754 400.518960 -3.126204 -0.601396 -2.283504 -135.446217 -24.926311 -100.512285 -0.000003 -0.000003 -16.919394 324.359509 -60.047417 -210.457335 -0.000000 -0.000000 -18.035894 177.721782 53.896784 -184.416378
23.285603 38.772606 8.546494 5.614318 1.216693 -4.228590 -0.128498 0.160399 6.566001 -5.803358 2.795593 3.976961 -0.000001 0.000001 3.554809 -0.933153 -8.315385 -1.082683 0.000000 0.000002 8.267998 3.321787 2.709195 4.409838 0.000001 -0.000002 2.173900 2.760448 -0.061890 1.856929 2.057505 0.117598 5.946306 -23.364178 4.462188 3.435354 4.957702 0.000007 0.000001 -13.855285 -8.697265 -79.332060 -0.000000 -0.000004 -8.465505 -70.586221 -126.438427 -73.955738 0.000004 -0.000001 -14.594891 -189.301329 -140.374799 -168.438762 -3.048500 -0.728799 6.604099 30.931570 3.849965 -5.077049 -3.710289 0.000002 0.000002 35.502019 -4.242976 100.417154 0.000001 0.000005 -10.450903 -151.477258 -56.041279 -164.131809 0.000007 -0.000003 -12.539197 324.698642 -13.055783 39.304388 2.442596 -0.601402 -2.767501 134.626662 1.889372 92.015045 -0.000001 -0.000007 -17.033707 -179.391107 44.938874 170.859136 -0.000002 0.000001 -19.318796 -148.257712 117.842524 400.485355 -3.126199 -0.601405 -2.283497 -135.419278 -24.841475 -100.460150 -0.000004 -0.000005 -16.919394 324.446444 -60.055996 -210.334023 0.000002 -0.000003 -18.035896 177.832813 53.891053 -184.435284
23.298100 38.766609 8.540699 5.583383 1.331202 -4.082119 -0.128501 0.160400 6.566010 -5.826534 2.727598 4.150563 -0.000001 -0.000002 3.554810 -1.277847 -8.295807 -1.290903 0.000001 -0.000001 8.268000 3.588184 2.495268 4.066459 0.000003 -0.000001 2.173900 2.927024 0.054126 1.910228 2.057504 0.117600 5.946302 -23.698332 4.649699 3.269637 4.957693 0.000002 0.000006 -16.371159 -9.586562 -77.471380 -0.000001 -0.000001 -8.465497 -71.189771 -126.946552 -72.373839 -0.000000 0.000003 -14.594897 -188.182421 -139.612372 -164.868240 -3.048499 -0.728803 6.604097 28.920667 3.602281 -5.180690 -3.710297 -0.000000 0.000001 33.471865 -4.509526 101.437393 -0.000001 0.000009 -10.450907 -153.372308 -53.521263 -165.227330 0.000003 0.000000 -12.539192 324.232249 -11.158147 32.978940 2.442593 -0.601400 -2.767501 134.625201 1.834883 92.227990 -0.000003 -0.000004 -17.033703 -179.511264 44.983940 171.008703 -0.000003 0.000003 -19.318802 -148.284363 117.839655 400.459045 -3.126194 -0.601401 -2.283501 -135.422666 -24.707289 -100.428950 -0.000005 -0.000001 -16.919395 324.549252 -60.052451 -210.208060 0.000000 -0.000006 -18.035900 177.950456 53.884534 -184.453889
23.311899 38.758003 8.536499 5.573085 1.489464 -3.835854 -0.128500 0.160395 6.566000 -5.859831 2.614210 4.207309 -0.000001 0.000002 3.554811 -1.678023 -8.284484 -1.390620 -0.000001 0.000002 8.267995 3.915733 2.285181 3.622481 0.000001 -0.000003 2.173895 3.093572 0.168255 1.946255 2.057502 0.117600 5.946301 -23.945667 4.901032 2.979580 4.957697 0.000001 -0.000003 -19.189813 -10.658541 -75.912792 0.000002 0.000003 -8.465503 -72.094600 -127.330340 -71.462227 0.000008 0.000002 -14.594896 -186.723657 -138.273464 -160.945594 -3.048503 -0.728798 6.604096 28.483111 3.363878 -5.487943 -3.710293 0.000005 -0.000006 30.113973 -5.277020 102.587461 -0.000001 0.000007 -10.450909 -154.685644 -51.258370 -165.395203 0.000004 -0.000002 -12.539194 324.300442 -9.010257 25.406355 2.442592 -0.601401 -2.767498 134.594492 1.716086 92.549897 -0.000001 -0.000001 -17.033703 -179.678330 45.043974 171.211765 -0.000003 0.000000 -19.318800 -148.341272 117.828768 400.441615 -3.126197 -0.601406 -2.283498 -135.433963 -24.455260 -100.346667 -0.000003 -0.000001 -16.919395 324.671130 -60.037076 -210.079298 -0.000001 -0.000005 -18.035896 178.075094 53.877611 -184.473178
23.326801 38.746799 8.534199 5.566115 1.677049 -3.685532 -0.128499 0.160397 6.565998 -5.895341 2.448594 4.339340 0.000002 0.000002 3.554806 -2.051705 -8.266485 -1.482657 -0.000002 -0.000002 8.267995 4.219365 2.075442 3.199095 0.000002 0.000005 2.173900 3.258914 0.276803 1.965135 2.057502 0.117601 5.946306 -24.190286 5.154939 2.663619 4.957696 0.000013 0.000001 -22.208142 -11.861615 -74.824927 0.000003 0.000002 -8.465502 -73.200756 -127.637630 -71.037956 0.000004 0.000008 -14.594903 -185.838041 -137.309410 -157.119623 -3.048503 -0.728801 6.604099 28.123012 3.148733 -5.791902 -3.710297 0.000002 -0.000001 26.937382 -6.446359 103.768462 -0.000003 0.000006 -10.450904 -159.496542 -49.938785 -167.466239 0.000004 -0.000000 -12.539196 322.338156 -6.464837 16.205068 2.442597 -0.601399 -2.767506 134.556188 1.665291 92.831594 -0.000001 -0.000003 -17.033703 -179.901637 45.118327 171.472118 -0.000003 0.000001 -19.318806 -148.431048 117.808810 400.434020 -3.126195 -0.601403 -2.283504 -135.495216 -24.232357 -100.355478 -0.000005 -0.000004 -16.919395 324.813526 -60.010541 -209.948636 0.000001 0.000003 -18.035896 178.206739 53.870262 -184.494215
23.342402 38.733109 8.533699 5.567792 1.890071 -3.536623 -0.128498 0.160397 6.566005 -5.933439 2.242261 4.448148 0.000000 0.000004 3.554807 -2.402196 -8.243707 -1.567752 0.000001 -0.000009 8.268002 4.503408 1.874958 2.803348 -0.000003 0.000004 2.173901 3.421540 0.377077 1.967182 2.057505 0.117594 5.946308 -24.424219 5.411511 2.325218 4.957695 0.000001 0.000001 -25.402904 -13.152310 -74.262980 0.000002 -0.000002 -8.465506 -74.471328 -127.909048 -71.127602 0.000002 0.000004 -14.594898 -184.647074 -136.552202 -153.541054 -3.048501 -0.728806 6.604099 27.852330 2.964526 -6.089930 -3.710296 0.000000 -0.000003 24.049255 -8.016567 104.982104 0.000001 0.000007 -10.450900 -157.179114 -48.115674 -164.136795 -0.000000 0.000003 -12.539197 325.409501 -4.297529 7.016468 2.442591 -0.601404 -2.767502 134.504074 1.617031 93.136453 -0.000001 -0.000004 -17.033703 -180.170254 45.192756 171.775378 -0.000004 -0.000001 -19.318802 -148.573075 117.795546 400.448418 -3.126198 -0.601408 -2.283497 -135.577930 -23.974044 -100.378468 -0.000005 0.000001 -16.919403 324.976603 -59.974464 -209.816827 -0.000001 -0.000004 -18.035896 178.344927 53.862913 -184.517574
